
        <svg width="875" height="945" viewBox="0 0 875 945" fill="none" xmlns="http://www.w3.org/2000/svg">
            <path d="M533.685 680.342C543.678 705.183 568.343 714.669 582.494 698.485M533.685 680.342C512.828 628.509 558.739 514.846 578.091 521.261M533.685 680.342L582.494 698.485M533.685 680.342L578.091 521.261M582.494 698.485C611.615 665.187 597.735 527.774 578.091 521.261M469.361 618.693C450.295 561.962 587.674 467.124 619.904 506.491C639.723 530.695 637.044 589.163 630.348 636.831C624.063 681.581 598.756 745.483 557.021 761.161C534.866 769.462 503.356 764.368 492.373 746.644C483.876 732.926 487.78 714.446 486.372 710.363C494.256 690.938 497.306 688.092 499.191 672.604C501.656 652.36 474.603 634.295 469.361 618.693ZM402.134 561.014C412.541 495.207 612.977 424.163 658.815 495.69C688.009 541.243 674.792 620.499 659.098 675.727C644.682 726.458 596.852 810.873 528.647 827.807C489.017 837.651 433.352 825.432 417.353 790.779C404.604 763.157 415.761 727.634 416.632 721.376C436.051 684.426 445.879 681.459 452.579 653.926C461.439 617.472 397.764 588.516 402.134 561.014ZM335.343 507.505C354.367 434.865 638.552 385.372 698.155 489.06C736.619 555.979 713.085 656.049 688.276 718.793C665.839 775.553 595.478 880.127 500.702 898.622C443.546 909.781 363.848 890.727 342.762 839.091C325.813 797.599 343.521 744.707 347.321 736.571C373.904 679.689 394.882 679.02 406.396 639.401C421.732 586.773 325.4 545.548 335.343 507.505ZM271.587 457.211C298.952 376.782 666.876 349.928 740.536 485.644C788.072 574.02 754.478 694.862 720.502 765.068C690.09 827.924 597.202 952.524 475.792 972.678C401.162 985.066 297.401 959.261 271.195 890.636C250.063 835.251 275.292 765.414 281.027 754.993C321.378 681.685 347.006 679.85 363.254 628.156C385.066 559.344 255.211 505.354 271.587 457.211ZM200.47 944.435C175.162 875.182 207.876 788.441 215.582 775.67C269.612 686.135 299.781 682.893 320.914 619.143C349.092 534.133 185.383 467.06 208.632 409.214C244.347 320.36 696.48 316.487 783.719 484.526C840.642 594.172 796.712 736.019 753.523 813.646C715.172 882.585 599.758 1027.12 451.69 1048.98C359.591 1062.57 231.756 1030.06 200.47 944.435ZM156.342 195.613C156.032 222.866 110.102 255.438 102.53 230.976C98.1512 216.848 105.273 179.489 117.777 164.838C135.373 144.205 156.561 176.859 156.342 195.613ZM108.821 269.564C102.68 266.881 99.9903 254.386 92.5391 242.972C77.4165 219.818 70.2067 216.485 61.0949 200.044C57.5347 193.632 52.8578 185.006 55.04 176.601C58.384 163.73 72.6847 160.552 97.9061 144.269C130.679 123.156 139.16 115.152 156.47 121.25C160.495 122.671 173.539 124.53 181.466 134.756C192.425 148.918 183.869 165.465 191.086 186.195C199.739 211.092 215.246 223.463 208.339 234.241C203.475 241.834 190.221 242.084 167.125 247.722C149.53 252.015 137.986 254.714 128.558 259.965C117.334 266.263 115.648 272.548 108.821 269.564ZM121.501 311.255C110.601 310.766 105.384 293.091 89.6797 278.497C57.465 248.568 34.3307 262.339 10.8021 238.354C0.813741 228.177 -8.84117 212.222 -6.90786 196.26C-4.16063 173.607 18.5572 166.052 64.6806 131.283C124.984 85.8254 136.828 66.4275 168.87 70.7659C175.401 71.6531 200.485 72.5621 215.526 90.4227C235.584 114.243 217.171 142.689 232.183 179.941C248.934 221.565 284.986 237.194 277.469 251.197C272.249 260.921 251.367 257.139 210.592 264.523C181.61 269.75 164.672 272.982 150.772 283.538C133.241 296.861 133.338 311.783 121.501 311.255ZM134.041 352.988C118.412 354.752 110.631 331.863 86.6746 314.064C37.3558 277.418 -1.39014 308.812 -39.6364 276.705C-56.0012 262.962 -70.6042 239.426 -68.9957 215.96C-66.7692 183.436 -35.8087 171.493 31.3155 118.291C119.022 48.3438 134.523 18.1659 181.131 20.2636C190.22 20.6765 227.279 20.5881 249.463 46.0715C278.603 79.5556 250.298 119.962 273.153 173.663C298.001 232.054 354.581 250.889 346.477 268.157C340.871 280.008 312.386 272.338 253.932 281.331C213.562 287.538 191.311 291.286 172.858 307.123C149.079 327.537 150.876 351.101 134.041 352.988ZM146.546 394.817C126.204 398.81 115.832 370.772 83.6401 349.727C17.1879 306.443 -37.0186 355.526 -90.1044 315.147C-112.817 297.886 -132.373 266.708 -131.119 235.75C-129.396 193.331 -90.0882 177.191 -2.07917 105.419C113.181 11.2047 132.299 -29.8733 193.362 -30.0886C205.009 -30.1319 254.009 -31.2 283.366 1.87621C321.552 45.0664 283.372 97.3547 314.092 167.541C347.003 242.712 424.164 264.751 415.455 285.214C409.481 299.196 373.369 287.633 297.242 298.234C245.479 305.44 217.944 309.679 194.914 330.798C164.916 358.321 168.42 390.522 146.546 394.817ZM159.045 436.724C185.97 430.021 180.747 389.195 216.964 354.569C244.577 328.164 277.383 323.433 340.546 315.227C434.34 303.043 478.085 318.481 484.421 302.367C493.741 278.68 395.993 253.442 355.026 161.479C316.435 74.8434 364.571 10.5655 317.262 -42.2587C280.785 -82.9817 219.844 -80.8738 205.581 -80.3805C130.08 -77.768 107.328 -25.8561 -35.4858 92.6309C-144.38 182.98 -192.022 203.299 -193.248 255.636C-194.149 294.08 -169.626 332.917 -140.578 353.684C-72.6065 402.312 -2.91011 335.444 80.5995 385.469C121.067 409.712 133.996 442.964 159.045 436.724ZM593.193 91.4536C589.676 98.5574 596.358 113.508 606.841 114.855C618.733 116.381 628.63 99.5068 625.597 92.0744C622.004 83.283 597.847 82.0278 593.193 91.4536ZM656.469 71.5702C645.521 59.4206 625.372 54.0722 590.826 47.9255C556.571 41.8335 532.029 42.7159 530.229 47.9918C529.259 50.8669 536.75 59.0371 542.236 66.0431C552.477 79.1581 551.262 101.562 552.355 107.308C556.362 128.343 563.912 134.537 578.383 143.361C585.066 147.445 599.884 156.967 617.34 161.185C643.774 167.618 651.832 196.178 662.448 192.726C671.309 189.823 673.55 161.552 673.861 143.219C674.308 116.945 673.376 90.3545 656.469 71.5702ZM686.079 50.6303C666.509 30.6559 633.581 22.7352 571.994 10.5083C510.111 -1.9116 467.636 -1.93871 466.033 4.10056C464.807 8.63296 480.067 23.3583 490.968 35.8683C511.604 59.4496 508.059 101.563 509.358 110.247C515.156 149.849 529.327 159.639 556.121 175.048C567.281 181.467 594.476 199.07 626.634 207.139C675.899 219.558 688.617 277.889 706.912 273.11C722.147 269.117 724.66 215.059 723.52 181.037C721.866 133 719.161 84.3825 686.079 50.6303ZM715.497 29.804C687.31 1.98702 641.58 -8.41657 552.97 -26.7896C463.441 -45.4473 403.133 -46.4556 401.609 -39.6713C400.191 -33.4573 423.181 -12.189 439.526 5.78895C470.609 39.7765 464.67 101.654 466.134 113.282C473.467 171.437 494.462 184.879 533.639 206.831C549.268 215.592 588.846 241.262 635.69 253.194C707.791 271.581 725.157 359.689 751.137 353.596C772.746 348.508 775.623 268.649 772.927 218.951C769.342 149.162 764.788 78.4462 715.497 29.804ZM744.896 9.04382C708.094 -26.6339 649.555 -39.508 533.922 -64.0272C416.759 -88.9467 338.636 -90.9423 337.161 -83.3889C335.603 -75.4873 366.23 -47.6641 388.031 -24.2302C429.491 20.2296 421.217 101.799 422.887 116.37C431.655 193.08 459.527 210.276 511.126 238.673C531.215 249.812 583.187 283.515 644.722 299.298C739.653 323.67 761.674 441.556 795.339 434.13C823.311 427.958 826.447 322.299 822.318 256.918C816.638 165.409 810.414 72.5519 744.896 9.04382ZM379.622 119.489C389.791 214.747 424.662 235.54 488.602 270.54C513.185 283.997 577.516 325.798 653.736 345.438C771.51 375.765 798.179 523.446 839.523 514.7C873.904 507.432 877.247 375.979 871.69 294.916C863.909 181.649 856.03 66.6695 774.284 -11.6925C728.861 -55.2309 657.53 -70.5697 514.863 -101.241C370.06 -132.374 274.138 -135.357 272.702 -127.071C271.04 -117.463 309.244 -83.1276 336.518 -54.2255C388.35 0.712433 377.752 101.968 379.622 119.489ZM96.9847 893.118C137.2 882.404 118.582 804.745 209.383 712.579C241.921 679.554 275.914 657.442 281.334 613.639C281.878 609.219 286.675 565.336 259.466 534.289C225.237 495.23 177.497 518.9 111.174 473.25C86.7429 456.435 93.8622 453.665 74.5929 441.321C-7.6618 388.639 -91.6036 468.471 -175.16 422.081C-213.622 400.726 -222.364 369.1 -227.405 372.091C-249.034 385.001 -11.3815 922.069 96.9847 893.118ZM226.443 601.488C226.103 598.832 228.294 569.895 209.049 549.994C184.75 524.829 151.121 542.642 105.894 513.767C89.2392 503.141 93.7686 501.681 80.5922 494.115C24.3643 461.837 -32.4962 519.378 -87.5489 490.996C-113.035 477.861 -118.819 457.212 -121.322 460.275C-132.734 474.13 34.0261 828.649 107.187 801.017C134.625 790.656 125.087 733.702 184.324 668.707C205.849 645.074 229.98 629.094 226.443 601.488ZM171.547 589.338C169.703 588.577 169.791 574.424 158.633 565.698C144.159 554.368 124.786 566.347 100.619 554.285C91.747 549.86 93.646 549.684 86.5915 546.903C56.251 534.964 26.646 570.333 0.056511 559.905C-12.459 555.026 -14.5666 546.01 -15.2441 548.411C-12.8852 565.982 79.598 734.869 117.388 708.946C132.154 698.824 131.569 662.461 159.266 624.864C169.794 610.575 177.5 601.223 171.547 589.338ZM116.656 577.188C90.2177 586.446 81.1178 623.127 90.8392 636.595C105.192 656.455 124.022 639.591 127.59 616.862C130.237 599.875 146.914 566.594 116.656 577.188Z" stroke="#3D30FC" stroke-opacity="0.7" stroke-miterlimit="10" />
        </svg>

