<svg width="18" height="17" viewBox="0 0 18 17" fill="none" xmlns="http://www.w3.org/2000/svg">
<path fill-rule="evenodd" clip-rule="evenodd" d="M1.54795 1.32681C1.4893 1.32681 1.43305 1.35011 1.39158 1.39158C1.35011 1.43305 1.32681 1.4893 1.32681 1.54795V2.95069C1.32681 2.95064 1.32681 2.95074 1.32681 2.95069C1.32686 3.00929 1.35017 3.06561 1.39161 3.10704L7.06506 8.78049C7.06504 8.78047 7.06509 8.78051 7.06506 8.78049C7.35533 9.07071 7.51852 9.46442 7.51861 9.87489V15.0098C7.51861 15.0591 7.53509 15.107 7.56542 15.1458C7.59568 15.1846 7.63801 15.2122 7.6857 15.2242M7.6857 15.2242L9.45479 15.6665C9.4874 15.6746 9.52175 15.6754 9.55463 15.6684C9.58751 15.6614 9.61838 15.6471 9.64488 15.6264C9.67138 15.6057 9.69281 15.5793 9.70756 15.549C9.7223 15.5188 9.72997 15.4857 9.72997 15.4521V9.87503C9.73006 9.46456 9.89318 9.07078 10.1834 8.78056C10.1834 8.78059 10.1835 8.78054 10.1834 8.78056L15.8569 3.10711C15.8983 3.06568 15.9217 3.00943 15.9218 2.95083C15.9218 2.95079 15.9218 2.95088 15.9218 2.95083V1.54795C15.9218 1.4893 15.8985 1.43305 15.857 1.39158C15.8155 1.35011 15.7593 1.32681 15.7006 1.32681H1.54795M0.453384 0.453384C0.743681 0.163087 1.13741 0 1.54795 0H15.7006C16.1112 0 16.5049 0.163087 16.7952 0.453384C17.0855 0.743682 17.2486 1.13741 17.2486 1.54795V2.95083C17.2485 3.36131 17.0854 3.75508 16.7951 4.04531C16.7951 4.04533 16.7951 4.04528 16.7951 4.04531L11.1216 9.71876C11.0802 9.76019 11.0568 9.81644 11.0568 9.87503C11.0568 9.87499 11.0568 9.87508 11.0568 9.87503V15.4521C11.0568 15.6874 11.0031 15.9196 10.8999 16.131C10.7967 16.3425 10.6467 16.5276 10.4612 16.6724C10.2757 16.8171 10.0596 16.9177 9.8294 16.9664C9.5993 17.0152 9.36114 17.0108 9.13299 16.9537C9.13289 16.9537 9.13309 16.9537 9.13299 16.9537L7.3639 16.5114C7.02917 16.4276 6.73174 16.2342 6.51943 15.9621C6.30712 15.6901 6.19181 15.3549 6.1918 15.0098V9.87517C6.1918 9.87513 6.1918 9.87522 6.1918 9.87517C6.19175 9.81658 6.16845 9.76026 6.12701 9.71883L0.453549 4.04538C0.453526 4.04535 0.453573 4.0454 0.453549 4.04538C0.163276 3.75515 8.76781e-05 3.36145 0 2.95098V1.54795C0 1.13741 0.163087 0.743681 0.453384 0.453384Z" fill="#5B6C87"/>
</svg>
